<svg width="117" height="30" viewBox="0 0 117 30" fill="none" xmlns="http://www.w3.org/2000/svg">
    <path
        d="M10.987 20.432L4.85 16.913V15.536L10.987 12.017L11.803 13.292L5.7 16.794V15.655L11.803 19.157L10.987 20.432ZM14.853 20.687C14.479 20.687 14.19 20.5793 13.986 20.364C13.782 20.1373 13.68 19.82 13.68 19.412C13.68 19.038 13.7877 18.732 14.003 18.494C14.2184 18.256 14.5017 18.137 14.853 18.137C15.227 18.137 15.516 18.2503 15.72 18.477C15.924 18.6923 16.026 19.004 16.026 19.412C16.026 19.786 15.9184 20.092 15.703 20.33C15.4877 20.568 15.2044 20.687 14.853 20.687ZM23.4689 20.432L22.6529 19.157L28.7559 15.655V16.794L22.6529 13.292L23.4689 12.017L29.6059 15.536V16.913L23.4689 20.432ZM36.3193 20.5V10.7H40.3093C40.8413 10.7 41.3219 10.8353 41.7513 11.106C42.1899 11.3673 42.5399 11.7267 42.8013 12.184C43.0626 12.6413 43.1933 13.15 43.1933 13.71C43.1933 14.27 43.0626 14.7787 42.8013 15.236C42.5399 15.6933 42.1899 16.062 41.7513 16.342C41.3219 16.6127 40.8413 16.748 40.3093 16.748H37.8313V20.5H36.3193ZM37.8313 15.292H40.2813C40.5333 15.292 40.7619 15.222 40.9673 15.082C41.1726 14.9327 41.3359 14.7413 41.4573 14.508C41.5879 14.2653 41.6533 13.9993 41.6533 13.71C41.6533 13.4207 41.5879 13.1593 41.4573 12.926C41.3359 12.6927 41.1726 12.506 40.9673 12.366C40.7619 12.226 40.5333 12.156 40.2813 12.156H37.8313V15.292ZM47.9956 20.64C47.2769 20.64 46.6329 20.4767 46.0636 20.15C45.5036 19.814 45.0603 19.3613 44.7336 18.792C44.4069 18.2133 44.2436 17.5553 44.2436 16.818C44.2436 16.0807 44.4069 15.4273 44.7336 14.858C45.0603 14.2793 45.5036 13.8267 46.0636 13.5C46.6329 13.164 47.2769 12.996 47.9956 12.996C48.7049 12.996 49.3396 13.164 49.8996 13.5C50.4689 13.8267 50.9169 14.2793 51.2436 14.858C51.5703 15.4273 51.7336 16.0807 51.7336 16.818C51.7336 17.5553 51.5703 18.2133 51.2436 18.792C50.9169 19.3613 50.4689 19.814 49.8996 20.15C49.3396 20.4767 48.7049 20.64 47.9956 20.64ZM47.9956 19.324C48.4343 19.324 48.8263 19.2167 49.1716 19.002C49.5169 18.778 49.7876 18.4793 49.9836 18.106C50.1796 17.7233 50.2729 17.294 50.2636 16.818C50.2729 16.3327 50.1796 15.9033 49.9836 15.53C49.7876 15.1473 49.5169 14.8487 49.1716 14.634C48.8263 14.4193 48.4343 14.312 47.9956 14.312C47.5569 14.312 47.1603 14.424 46.8056 14.648C46.4603 14.8627 46.1896 15.1613 45.9936 15.544C45.7976 15.9173 45.7043 16.342 45.7136 16.818C45.7043 17.294 45.7976 17.7233 45.9936 18.106C46.1896 18.4793 46.4603 18.778 46.8056 19.002C47.1603 19.2167 47.5569 19.324 47.9956 19.324ZM53.5429 20.5V13.15H54.9849V20.5H53.5429ZM54.2429 11.526C53.9349 11.526 53.6969 11.4467 53.5289 11.288C53.3609 11.1293 53.2769 10.9053 53.2769 10.616C53.2769 10.3453 53.3609 10.126 53.5289 9.958C53.7062 9.79 53.9442 9.706 54.2429 9.706C54.5509 9.706 54.7889 9.78533 54.9569 9.944C55.1249 10.1027 55.2089 10.3267 55.2089 10.616C55.2089 10.8867 55.1202 11.106 54.9429 11.274C54.7749 11.442 54.5415 11.526 54.2429 11.526ZM57.2014 20.5V13.15H58.6434V14.662L58.3914 14.83C58.4847 14.5033 58.6667 14.2047 58.9374 13.934C59.208 13.654 59.53 13.43 59.9034 13.262C60.2767 13.0847 60.6594 12.996 61.0514 12.996C61.6114 12.996 62.078 13.108 62.4514 13.332C62.8247 13.5467 63.1047 13.878 63.2914 14.326C63.478 14.774 63.5714 15.3387 63.5714 16.02V20.5H62.1294V16.118C62.1294 15.698 62.0734 15.3527 61.9614 15.082C61.8494 14.802 61.6767 14.6013 61.4434 14.48C61.21 14.3493 60.9207 14.2933 60.5754 14.312C60.2954 14.312 60.0387 14.3587 59.8054 14.452C59.572 14.536 59.3667 14.6573 59.1894 14.816C59.0214 14.9747 58.886 15.1613 58.7834 15.376C58.69 15.5813 58.6434 15.8053 58.6434 16.048V20.5H57.9294C57.808 20.5 57.6867 20.5 57.5654 20.5C57.444 20.5 57.3227 20.5 57.2014 20.5ZM66.4375 20.5V11.274H67.8795V20.5H66.4375ZM64.9115 14.55V13.15H69.5875V14.55H64.9115Z"
        fill="#37FF00" />
    <path
        d="M75.1884 20.5V10.7H79.2764C79.9017 10.7 80.4291 10.7933 80.8584 10.98C81.2877 11.1667 81.6097 11.4467 81.8244 11.82C82.0484 12.184 82.1604 12.632 82.1604 13.164C82.1604 13.696 82.0111 14.1487 81.7124 14.522C81.4231 14.8953 81.0171 15.152 80.4944 15.292V15.012C80.9331 15.1053 81.3157 15.2733 81.6424 15.516C81.9691 15.7493 82.2211 16.0433 82.3984 16.398C82.5851 16.7527 82.6784 17.1587 82.6784 17.616C82.6784 18.0827 82.6037 18.498 82.4544 18.862C82.3144 19.2167 82.0997 19.5153 81.8104 19.758C81.5304 20.0007 81.1897 20.1873 80.7884 20.318C80.3871 20.4393 79.9297 20.5 79.4164 20.5H75.1884ZM76.7004 19.044H79.3324C79.7151 19.044 80.0371 18.988 80.2984 18.876C80.5691 18.764 80.7744 18.6007 80.9144 18.386C81.0637 18.162 81.1384 17.896 81.1384 17.588C81.1384 17.2987 81.0591 17.0513 80.9004 16.846C80.7511 16.6407 80.5364 16.4867 80.2564 16.384C79.9764 16.272 79.6451 16.216 79.2624 16.216H76.7004V19.044ZM76.7004 14.76H79.1924C79.4724 14.76 79.7197 14.704 79.9344 14.592C80.1584 14.48 80.3311 14.326 80.4524 14.13C80.5831 13.934 80.6484 13.71 80.6484 13.458C80.6484 13.038 80.5084 12.716 80.2284 12.492C79.9484 12.268 79.5471 12.156 79.0244 12.156H76.7004V14.76ZM84.3407 20.5V10.14H85.7827V20.5H84.3407ZM90.5176 20.64C89.911 20.64 89.3556 20.472 88.8516 20.136C88.357 19.8 87.9603 19.3427 87.6616 18.764C87.363 18.1853 87.2136 17.532 87.2136 16.804C87.2136 16.0667 87.363 15.4133 87.6616 14.844C87.9696 14.2653 88.3803 13.8127 88.8936 13.486C89.4163 13.1593 89.9996 12.996 90.6436 12.996C91.0263 12.996 91.3763 13.052 91.6936 13.164C92.011 13.276 92.2863 13.4347 92.5196 13.64C92.7623 13.836 92.9583 14.0647 93.1076 14.326C93.2663 14.5873 93.3643 14.8673 93.4016 15.166L93.0796 15.054V13.15H94.5356V20.5H93.0796V18.75L93.4156 18.652C93.3596 18.904 93.243 19.1513 93.0656 19.394C92.8976 19.6273 92.6783 19.8373 92.4076 20.024C92.1463 20.2107 91.8523 20.36 91.5256 20.472C91.2083 20.584 90.8723 20.64 90.5176 20.64ZM90.8956 19.31C91.3343 19.31 91.7216 19.2027 92.0576 18.988C92.3936 18.7733 92.655 18.4793 92.8416 18.106C93.0376 17.7233 93.1356 17.2893 93.1356 16.804C93.1356 16.328 93.0376 15.9033 92.8416 15.53C92.655 15.1567 92.3936 14.8627 92.0576 14.648C91.7216 14.4333 91.3343 14.326 90.8956 14.326C90.4663 14.326 90.0836 14.4333 89.7476 14.648C89.421 14.8627 89.1596 15.1567 88.9636 15.53C88.777 15.9033 88.6836 16.328 88.6836 16.804C88.6836 17.2893 88.777 17.7233 88.9636 18.106C89.1596 18.4793 89.421 18.7733 89.7476 18.988C90.0836 19.2027 90.4663 19.31 90.8956 19.31ZM96.549 20.5V13.15H97.991V14.662L97.739 14.83C97.8323 14.5033 98.0143 14.2047 98.285 13.934C98.5557 13.654 98.8777 13.43 99.251 13.262C99.6243 13.0847 100.007 12.996 100.399 12.996C100.959 12.996 101.426 13.108 101.799 13.332C102.172 13.5467 102.452 13.878 102.639 14.326C102.826 14.774 102.919 15.3387 102.919 16.02V20.5H101.477V16.118C101.477 15.698 101.421 15.3527 101.309 15.082C101.197 14.802 101.024 14.6013 100.791 14.48C100.558 14.3493 100.268 14.2933 99.923 14.312C99.643 14.312 99.3863 14.3587 99.153 14.452C98.9197 14.536 98.7143 14.6573 98.537 14.816C98.369 14.9747 98.2337 15.1613 98.131 15.376C98.0377 15.5813 97.991 15.8053 97.991 16.048V20.5H97.277C97.1557 20.5 97.0343 20.5 96.913 20.5C96.7917 20.5 96.6703 20.5 96.549 20.5ZM106.191 18.204L106.121 16.636L109.635 13.15H111.581L106.191 18.204ZM104.875 20.5V10.14H106.317V20.5H104.875ZM109.831 20.5L107.059 17.266L108.081 16.328L111.679 20.5H109.831Z"
        fill="white" />
</svg>