<svg width="12" height="13" viewBox="0 0 12 13" fill="none" xmlns="http://www.w3.org/2000/svg">
<path d="M11.5 5.3H0.5M8.44444 0.5V2.9M3.55556 0.5V2.9M3.43333 12.5H8.56667C9.59343 12.5 10.1068 12.5 10.499 12.3038C10.8439 12.1312 11.1244 11.8559 11.3002 11.5172C11.5 11.1321 11.5 10.6281 11.5 9.62V4.58C11.5 3.57191 11.5 3.06786 11.3002 2.68282C11.1244 2.34413 10.8439 2.06876 10.499 1.89619C10.1068 1.7 9.59343 1.7 8.56667 1.7H3.43333C2.40657 1.7 1.89319 1.7 1.50102 1.89619C1.15605 2.06876 0.875589 2.34413 0.699821 2.68282C0.5 3.06786 0.5 3.57191 0.5 4.58V9.62C0.5 10.6281 0.5 11.1321 0.699821 11.5172C0.875589 11.8559 1.15605 12.1312 1.50102 12.3038C1.89319 12.5 2.40657 12.5 3.43333 12.5Z" stroke="#37FF00" stroke-linecap="round" stroke-linejoin="round"/>
</svg>
